nColumns=19
nRows=47
DataType=double
version=3
OpenSimVersion=4.1
endheader
time	ground_force_1_vx	ground_force_1_vy	ground_force_1_vz	ground_force_1_px	ground_force_1_py	ground_force_1_pz	ground_force_1_mx	ground_force_1_my	ground_force_1_mz	ground_force_2_vx	ground_force_2_vy	ground_force_2_vz	ground_force_2_px	ground_force_2_py	ground_force_2_pz	ground_force_2_mx	ground_force_2_my	ground_force_2_mz
4.39	0	0	0	0.039216	0	-0.234186	0	0	0	0	0	0	1.39728	0	-0.400847	0	0	0
4.395	0	0	0	0.053805	0	-0.235275	0	0	0	0	0	0	1.38356	0	-0.405769	0	0	0
4.4	0	0	0	0.07079	0	-0.235312	0	0	0	0	0	0	1.36685	0	-0.408583	0	0	0
4.405	0	0	0	0.089246	0	-0.235428	0	0	0	0	0	0	1.34771	0	-0.409674	0	0	0
4.41	0	0	0	0.109118	0	-0.235337	0	0	0	0	0	0	1.32638	0	-0.408358	0	0	0
4.415	0	0	0	0.130267	0	-0.235082	0	0	0	0	0	0	1.30266	0	-0.406744	0	0	0
4.42	0	0	0	0.147108	0	-0.236723	0	0	0	0	0	0	1.27734	0	-0.403896	0	0	0
4.425	0	0	0	0.166333	0	-0.237626	0	0	0	0	0	0	1.25032	0	-0.400542	0	0	0
4.43	0	0	0	0.189309	0	-0.237247	0	0	0	-63.5245	121.655	-2.37856	1.13898	-0	-0.426314	0	1.89714	0
4.435	0	0	0	0.214993	0	-0.235975	0	0	0	-160.252	337.878	34.3125	0.973469	0	-0.469077	0	0.125533	0
4.44	0	0	0	0.242344	0	-0.234197	0	0	0	-271.638	655.72	97.3469	0.993383	0	-0.441826	0	1.15612	0
4.445	0	0	0	0.27032	0	-0.232299	0	0	0	-358.263	1044.36	189.601	1.00122	0	-0.418813	0	5.42887	0
4.45	0	0	0	0.297877	0	-0.230671	0	0	0	-391.205	1476.72	282.499	1.0035	0	-0.399925	0	5.24004	0
4.455	0	0	0	0.323974	0	-0.229699	0	0	0	-391.143	1941.27	332.872	0.992918	0	-0.385373	0	-12.3621	0
4.46	0	0	0	0.348069	0	-0.229425	0	0	0	-394.094	2394.23	307.525	0.970606	0	-0.37482	0	-40.6579	0
4.465	0	0	0	0.371273	0	-0.22888	0	0	0	-394.041	2760.37	196.624	0.948938	0	-0.368485	0	-57.3866	0
4.47	0	0	0	0.393792	0	-0.228231	0	0	0	-391.358	2994.83	31.5535	0.928766	0	-0.365554	0	-52.2536	0
4.475	0	0	0	0.415481	0	-0.228014	0	0	0	-390.64	3101.51	-131.206	0.904198	0	-0.365062	0	-29.4717	0
4.48	0	0	0	0.436194	0	-0.228768	0	0	0	-366.575	3115.78	-234.729	0.874324	0	-0.365615	0	-5.272	0
4.485	0	0	0	0.456099	0	-0.230324	0	0	0	-305.693	3087.8	-252.914	0.83906	0	-0.365837	0	4.32219	0
4.49	0	0	0	0.476507	0	-0.230786	0	0	0	-211.145	3045.72	-202.973	0.799731	0	-0.365208	0	-0.945541	0
4.495	0	0	0	0.498668	0	-0.230411	0	0	0	-86.9035	2993.01	-132.442	0.761786	0	-0.364173	0	-8.31527	0
4.5	0	0	0	0.523345	0	-0.227242	0	0	0	51.5862	2921.36	-83.3383	0.727452	0	-0.363296	0	-7.21369	0
4.505	0	0	0	0.549494	0	-0.225841	0	0	0	185.942	2813.39	-67.0875	0.695192	0	-0.362776	0	0.38862	0
4.51	0	0	0	0.578001	0	-0.224418	0	0	0	309.995	2651.42	-63.9638	0.663908	0	-0.362327	0	4.53587	0
4.515	0	0	0	0.609148	0	-0.222868	0	0	0	418.972	2428.93	-45.1393	0.630724	0	-0.361596	0	-1.76658	0
4.52	0	0	0	0.643081	0	-0.220654	0	0	0	502.915	2141.69	0.402996	0.589755	0	-0.360959	0	-21.6177	0
4.525	0	0	0	0.679306	0	-0.217677	0	0	0	558.599	1791.08	56.271	0.534385	0	-0.36131	0	-53.6391	0
4.53	0	0	0	0.71723	0	-0.214699	0	0	0	582.464	1401.66	91.1024	0.45677	0	-0.363683	0	-87.7455	0
4.535	0	0	0	0.757014	0	-0.212076	0	0	0	570.553	1017.06	77.7007	0.352411	0	-0.368915	0	-98.7998	0
4.54	0	0	0	0.798227	0	-0.209156	0	0	0	523.307	679.878	9.4443	0.224143	0	-0.379399	0	-51.0055	0
4.545	0	0	0	0.84041	0	-0.206211	0	0	0	440.635	413.788	-88.342	0.077893	0	-0.399861	0	66.2799	0
4.55	0	0	0	0.883185	0	-0.203395	0	0	0	332.982	217.854	-165.965	-0.100626	0	-0.439449	0	208.655	0
4.555	0	0	0	0.926731	0	-0.200966	0	0	0	221.823	84.4599	-177.519	0.220491	0	-0.381038	0	304.663	0
4.56	0	0	0	0.968967	0	-0.19983	0	0	0	0	0	0	0.226367	0	-0.377369	0	0	0
4.565	0	0	0	1.01	0	-0.200356	0	0	0	0	0	0	0.198062	0	-0.379526	0	0	0
4.57	0	0	0	1.04956	0	-0.201749	0	0	0	0	0	0	0.172674	0	-0.381265	0	0	0
4.575	0	0	0	1.08667	0	-0.204882	0	0	0	0	0	0	0.150916	0	-0.378516	0	0	0
4.58	0	0	0	1.12252	0	-0.209209	0	0	0	0	0	0	0.1251	0	-0.373561	0	0	0
4.585	0	0	0	1.15554	0	-0.213241	0	0	0	0	0	0	0.103099	0	-0.368919	0	0	0
4.59	0	0	0	1.18671	0	-0.217779	0	0	0	0	0	0	0.085728	0	-0.362465	0	0	0
4.595	0	0	0	1.21507	0	-0.222417	0	0	0	0	0	0	0.071966	0	-0.355557	0	0	0
4.6	0	0	0	1.24145	0	-0.227346	0	0	0	0	0	0	0.059549	0	-0.347681	0	0	0
4.605	0	0	0	1.26511	0	-0.232267	0	0	0	0	0	0	0.046524	0	-0.340423	0	0	0
4.61	0	0	0	1.28624	0	-0.237439	0	0	0	0	0	0	0.034959	0	-0.333477	0	0	0
4.615	0	0	0	1.3041	0	-0.242659	0	0	0	0	0	0	0.026295	0	-0.327784	0	0	0
4.62	0	0	0	1.31832	0	-0.248057	0	0	0	0	0	0	0.020847	0	-0.322052	0	0	0
